<?xml version="1.0" encoding="UTF-8" standalone="no"?>
<!-- Created with Inkscape (http://www.inkscape.org/) -->

<svg
   xmlns:dc="http://purl.org/dc/elements/1.1/"
   xmlns:cc="http://creativecommons.org/ns#"
   xmlns:rdf="http://www.w3.org/1999/02/22-rdf-syntax-ns#"
   xmlns:svg="http://www.w3.org/2000/svg"
   xmlns="http://www.w3.org/2000/svg"
   xmlns:sodipodi="http://sodipodi.sourceforge.net/DTD/sodipodi-0.dtd"
   xmlns:inkscape="http://www.inkscape.org/namespaces/inkscape"
   version="1.1"
   width="192"
   height="192"
   id="svg3241"
   inkscape:version="0.48.4 r9939"
   sodipodi:docname="icon.svg">
  <sodipodi:namedview
     pagecolor="#ffffff"
     bordercolor="#666666"
     borderopacity="1"
     objecttolerance="10"
     gridtolerance="10"
     guidetolerance="10"
     inkscape:pageopacity="0"
     inkscape:pageshadow="2"
     inkscape:window-width="1366"
     inkscape:window-height="744"
     id="namedview12"
     showgrid="false"
     inkscape:snap-bbox="true"
     inkscape:zoom="1.84375"
     inkscape:cx="-8.2800892"
     inkscape:cy="118.57518"
     inkscape:window-x="0"
     inkscape:window-y="24"
     inkscape:window-maximized="1"
     inkscape:current-layer="svg3241">
    <inkscape:grid
       empspacing="5"
       visible="true"
       enabled="true"
       snapvisiblegridlinesonly="true"
       type="xygrid"
       id="grid3143" />
  </sodipodi:namedview>
  <defs
     id="defs3243">
    <inkscape:path-effect
       effect="skeletal"
       id="path-effect3101"
       is_visible="true"
       pattern="M 0,0 0,10 10,5 z"
       copytype="single_stretched"
       prop_scale="1"
       scale_y_rel="false"
       spacing="0"
       normal_offset="0"
       tang_offset="0"
       prop_units="false"
       vertical_pattern="false"
       fuse_tolerance="0" />
    <inkscape:path-effect
       effect="spiro"
       id="path-effect3099"
       is_visible="true" />
    <inkscape:path-effect
       effect="skeletal"
       id="path-effect3095"
       is_visible="true"
       pattern="M 0,0 0,10 10,5 z"
       copytype="single_stretched"
       prop_scale="1"
       scale_y_rel="false"
       spacing="0"
       normal_offset="0"
       tang_offset="0"
       prop_units="false"
       vertical_pattern="false"
       fuse_tolerance="0" />
    <inkscape:path-effect
       effect="spiro"
       id="path-effect3093"
       is_visible="true" />
    <inkscape:path-effect
       effect="skeletal"
       id="path-effect3089"
       is_visible="true"
       pattern="M 0,0 0,10 10,5 z"
       copytype="single_stretched"
       prop_scale="1"
       scale_y_rel="false"
       spacing="0"
       normal_offset="0"
       tang_offset="0"
       prop_units="false"
       vertical_pattern="false"
       fuse_tolerance="0" />
    <inkscape:path-effect
       effect="spiro"
       id="path-effect3087"
       is_visible="true" />
    <inkscape:path-effect
       effect="skeletal"
       id="path-effect3083"
       is_visible="true"
       pattern="M 0,0 0,10 10,5 z"
       copytype="single_stretched"
       prop_scale="1"
       scale_y_rel="false"
       spacing="0"
       normal_offset="0"
       tang_offset="0"
       prop_units="false"
       vertical_pattern="false"
       fuse_tolerance="0" />
    <inkscape:path-effect
       effect="spiro"
       id="path-effect3081"
       is_visible="true" />
    <inkscape:path-effect
       effect="skeletal"
       id="path-effect3077"
       is_visible="true"
       pattern="M 0,0 0,10 10,5 z"
       copytype="single_stretched"
       prop_scale="1"
       scale_y_rel="false"
       spacing="0"
       normal_offset="0"
       tang_offset="0"
       prop_units="false"
       vertical_pattern="false"
       fuse_tolerance="0" />
    <inkscape:path-effect
       effect="spiro"
       id="path-effect3075"
       is_visible="true" />
  </defs>
  <metadata
     id="metadata3246">
    <rdf:RDF>
      <cc:Work
         rdf:about="">
        <dc:format>image/svg+xml</dc:format>
        <dc:type
           rdf:resource="http://purl.org/dc/dcmitype/StillImage" />
        <dc:title />
      </cc:Work>
    </rdf:RDF>
  </metadata>
  <path
     style="fill:#000080"
     id="path3207"
     d="m 19.213689,122.12721 c 0.09367,-1.04601 0.05408,-2.09267 0.336207,-3.12574 0.209094,-0.76565 0.511027,-1.51263 0.778734,-2.26613 1.056719,-2.97431 0.914517,-2.51964 2.17183,-5.58743 1.744568,-4.32504 3.356745,-8.69814 4.438209,-13.168653 0.661105,-2.732852 0.746111,-3.591933 1.183725,-6.314726 0.843837,-5.809297 0.733694,-11.665547 1.182523,-17.495261 0.448642,-5.678064 1.616525,-11.294422 2.803551,-16.894638 0.920462,-3.966452 1.617172,-7.967472 2.13165,-11.981799 0.293629,-4.057046 -0.0918,-1.648861 11.692459,-5.374953 0.406778,-0.12862 0.103894,0.704727 0.124718,1.058901 0.02835,0.481808 -0.01281,0.965459 0.02268,1.446953 0.111028,1.50616 0.332462,2.459274 0.611281,3.97566 0.785036,5.03612 2.261255,9.982344 4.015181,14.847901 1.246348,3.509464 3.05674,6.858846 5.654195,9.842335 1.41755,1.458055 3.315874,2.154795 5.510169,2.464391 1.822828,0.103976 3.788394,0.383324 5.558751,-0.141148 0.400655,-0.118693 0.764417,-0.307357 1.146625,-0.461036 4.742238,-2.378028 -2.200521,1.118542 -8.818694,4.021527 -0.337296,0.14795 0.607804,-0.382859 0.875184,-0.605981 1.004732,-0.838422 1.480297,-1.8518 2.02324,-2.912364 1.614182,-3.476458 2.335701,-7.16133 3.163949,-10.799076 0.853005,-4.030635 1.605351,-8.069358 2.220988,-12.127981 0.215741,-1.39772 0.382724,-2.803832 0.727051,-4.186281 0.08013,-0.321717 0.176192,-0.64092 0.282385,-0.957617 0.06325,-0.188617 0.01553,-0.461626 0.22552,-0.557119 3.866752,-1.758392 7.887302,-3.283678 11.830953,-4.925517 0.22271,0.374405 0.491816,0.732836 0.668125,1.123214 0.14695,0.325368 1.011635,3.112532 1.047697,3.228871 0.75289,2.428911 1.409977,4.865546 2.03197,7.318662 1.506913,6.134862 2.448791,12.347024 3.652624,18.522965 1.095501,7.227138 2.892532,14.361786 4.306835,21.547011 0.976053,4.715717 1.346919,9.483669 1.560216,14.255189 0.08898,3.73 0.07662,7.46112 0.07333,11.19169 -0.143483,3.11847 0.341349,6.21412 0.775058,9.30419 0.240206,1.02546 0.195479,2.0747 0.345972,3.10465 0,0 -11.963437,4.36122 -11.963437,4.36122 l 0,0 c 0.110371,-0.0136 0.273861,0.0372 0.331109,-0.0406 0.491357,-0.66813 -0.09791,-1.93398 0.01184,-2.64783 -0.303387,-3.15224 -0.774208,-6.30246 -0.648321,-9.47034 0.0192,-3.73159 0.05725,-7.46325 0.0052,-11.19479 -0.06295,-4.78489 -0.317261,-9.57187 -1.074834,-14.321569 C 81.008068,88.973249 79.487955,81.795265 77.991011,74.6197 76.771938,68.48454 75.681002,62.331906 74.148935,56.240399 73.223955,52.96376 72.269166,49.309973 70.59512,46.219259 c -0.07176,-0.132488 -0.195058,-0.242274 -0.292587,-0.363412 3.645335,-1.72267 7.295883,-3.438086 10.936008,-5.168013 0.190668,-0.09061 -0.457766,0.104285 -0.587043,0.249785 -0.232077,0.261205 -0.319253,0.591418 -0.434264,0.899701 -0.50761,1.36063 -0.649999,2.793515 -0.921445,4.190328 -0.355367,1.866615 -0.642783,3.740693 -1.02967,5.603374 -0.151003,0.727009 -0.818309,3.648891 -0.951568,4.338938 -0.146642,0.759354 -0.257472,1.522985 -0.386212,2.284478 -0.74726,3.640406 -1.393349,7.318097 -2.760501,10.847486 -0.452386,1.118652 -0.839553,2.298571 -1.683237,3.278086 -0.238871,0.277327 -0.464975,0.587764 -0.817573,0.768113 -9.714992,4.969116 -8.000113,4.287043 -13.154841,6.2154 -0.437608,0.102884 -0.866324,0.235186 -1.312828,0.308631 -1.939421,0.319021 -3.998437,0.10075 -5.924416,-0.153044 -2.401623,-0.537815 -4.421447,-1.514748 -5.853989,-3.222353 -2.46122,-3.177706 -4.291978,-6.651655 -5.480703,-10.282527 -1.681941,-4.907674 -3.145536,-9.873267 -4.17541,-14.900445 -0.421999,-1.761356 -0.896454,-3.517594 -1.14437,-5.302464 -0.02516,-0.181209 -0.236553,-0.450332 -0.0453,-0.545838 3.698851,-1.847202 7.516541,-3.541131 11.397152,-5.123258 0.240624,-0.0981 -0.209182,0.403039 -0.313773,0.604558 -1.02773,4.042319 -1.53984,8.157733 -2.59895,12.196335 -1.327818,5.565666 -2.473178,11.159396 -2.932443,16.824162 -0.560092,5.858596 -0.329237,11.752902 -1.247702,17.591795 -0.465355,2.710738 -0.591824,3.704103 -1.242331,6.423558 -1.070093,4.473538 -2.659115,8.841567 -4.255809,13.205447 -1.115745,2.87596 -1.08303,2.6121 -1.916605,5.41635 -0.485377,1.63287 -0.90378,3.22526 -0.614752,4.90669 0,0 -11.636241,4.81612 -11.636241,4.81612 z"
     inkscape:connector-curvature="0" />
  <path
     style="fill:#0088aa"
     id="path3209"
     d="m 100.64163,37.736877 c -0.13155,2.717663 -0.13887,5.440188 -0.18094,8.160447 -0.0327,4.679925 -0.15438,9.359337 -0.0532,14.038763 0.0423,6.166108 0.20046,12.333683 0.71943,18.47917 0.51674,4.935421 1.13622,9.861741 1.7678,14.784069 0.43667,3.36279 0.71243,6.74219 1.01525,10.118794 0.25588,2.76748 0.32204,5.54568 0.45997,8.32 0.0872,1.16788 0.17555,2.33693 0.30204,3.50142 0.0288,0.26485 0.0552,0.53035 0.10057,0.79287 0.02,0.11573 0.2004,0.28723 0.0951,0.33927 -3.73936,1.84811 -7.578144,3.48784 -11.367214,5.23177 0,0 11.547074,-5.6031 11.547074,-5.6031 l 0,0 c -13.528641,7.43324 -11.16204,9.93836 -11.882302,1.53751 -0.216797,-2.77757 -0.08337,-5.57476 -0.345181,-8.3525 C 92.559698,105.7033 92.2003,102.32976 91.9179,98.949529 91.423394,93.962047 90.966049,88.971159 90.417032,83.988987 89.873938,77.838611 89.882538,71.664194 89.552771,65.500957 89.421679,60.851396 89.437135,56.199266 89.369818,51.548406 c -0.04178,-2.658775 -0.04752,-5.320049 -0.180938,-7.976062 0,0 11.45275,-5.835467 11.45275,-5.835467 z"
     inkscape:connector-curvature="0" />
  <path
     style="fill:#000080"
     id="path3211"
     d="m 95.145892,78.400428 c 0.257911,-3.034604 1.90943,-5.712441 3.545066,-8.195605 2.795492,-3.909074 6.465692,-7.007697 10.310502,-9.831127 5.93493,-3.894651 11.88199,-8.021744 18.50512,-10.640466 1.15297,-0.455875 2.80905,-0.969272 3.98967,-1.350094 3.90527,-0.996199 7.77734,-2.137332 11.62097,-3.35041 4.57545,-1.578231 12.75932,-6.777048 -6.09044,3.946637 0,0 11.80664,-4.654362 11.80664,-4.654362 l 0,0 c -5.47693,3.223281 -9.75845,6.601599 -15.56066,8.317232 -3.83755,1.139405 -7.68485,2.245046 -11.53918,3.325691 -1.57358,0.542265 -2.37579,0.783717 -3.90697,1.453091 -0.62884,0.274904 -2.44241,1.246741 -1.85835,0.886353 16.65928,-10.279357 8.06265,-4.683607 4.4056,-2.432001 -1.12046,0.79414 -2.92887,2.046308 -3.99615,2.919796 -2.33265,1.909098 -4.45805,4.095377 -6.32465,6.458307 -1.54316,2.142344 -3.16319,4.612136 -3.43624,7.302229 0,0 -11.470928,5.844729 -11.470928,5.844729 z"
     inkscape:connector-curvature="0" />
  <path
     style="fill:#000080"
     id="path3213"
     d="m 108.53952,65.646117 c 0.28322,0.0174 0.56928,-0.004 0.84967,0.05219 2.76659,0.553951 5.7682,2.214529 8.35422,3.589047 2.02576,1.404996 4.24428,2.691682 5.87333,4.909104 0.82772,1.126662 1.08524,1.898974 1.67565,3.240811 1.13956,3.319177 1.78927,6.870892 2.83858,10.240581 0.67367,1.986954 1.67582,3.857867 2.97227,5.2191 0.70621,0.741492 1.52668,1.206637 2.32422,1.730992 3.30678,1.535323 6.84057,1.978835 10.32043,1.788447 3.71203,-0.289785 7.32205,-1.609774 10.84396,-3.12766 1.49538,-0.680469 2.07316,-0.886457 3.49931,-1.755464 0.52361,-0.319055 2.03965,-1.423326 1.54209,-1.037067 -15.24853,11.837462 -9.28631,7.789858 -6.35209,4.14981 1.72045,-2.556101 2.50291,-5.730506 2.77467,-9.08661 0.12148,-1.334079 -0.0551,-2.563245 -0.34295,-3.82525 0,0 10.31136,-7.531175 10.31136,-7.531175 l 0,0 c 0.32568,1.444866 0.61088,2.865862 0.47167,4.397645 -0.15747,3.623696 -0.89028,7.070109 -2.4813,10.066423 -0.74274,1.17222 -1.06686,1.870834 -2.08918,2.687977 -5.5193,4.411569 -10.3477,8.904462 -16.3796,11.280192 -3.59542,1.45632 -7.27716,2.69537 -11.05548,2.79892 -3.64824,0.004 -7.33185,-0.51528 -10.75228,-2.31348 -1.05917,-0.7504 -1.6338,-1.06312 -2.55999,-2.0885 -1.38862,-1.537339 -2.44958,-3.598214 -3.19498,-5.767674 -1.0228,-3.309727 -1.71475,-6.760074 -2.74453,-10.063047 -0.52592,-1.189623 -0.72673,-1.813286 -1.45841,-2.803996 -1.53491,-2.078289 -3.5817,-3.373957 -5.52132,-4.613342 -2.97956,-1.52737 -6.10038,-3.089047 -9.346036,-2.800834 0,0 9.626716,-9.337144 9.626716,-9.337144 z"
     inkscape:connector-curvature="0" />
</svg>
